<?xml version="1.0" encoding="UTF-8" standalone="no"?>
<svg xmlns:svg="http://www.w3.org/2000/svg"
     xmlns="http://www.w3.org/2000/svg" version="1.1"
     width="360.0" height="185.0">
    <!-- Created with parliamentarch (https://github.com/Gouvernathor/parliamentarch/) -->
    <text x="180.0" y="175.0"
          style="font-size:36px;font-weight:bold;text-align:center;text-anchor:middle;font-family:sans-serif">435</text>
    <g style="fill:#3333ff"
       id="0-Democratic-Party">
        <title>Democratic Party</title>
        <circle cx="9.22" cy="175.83" r="3.33"/>
        <circle cx="17.55" cy="175.83" r="3.33"/>
        <circle cx="25.89" cy="175.83" r="3.33"/>
        <circle cx="34.23" cy="175.83" r="3.33"/>
        <circle cx="42.56" cy="175.83" r="3.33"/>
        <circle cx="50.90" cy="175.83" r="3.33"/>
        <circle cx="59.24" cy="175.83" r="3.33"/>
        <circle cx="67.58" cy="175.83" r="3.33"/>
        <circle cx="75.92" cy="175.83" r="3.33"/>
        <circle cx="84.26" cy="175.83" r="3.33"/>
        <circle cx="92.60" cy="175.83" r="3.33"/>
        <circle cx="9.77" cy="165.69" r="3.33"/>
        <circle cx="18.14" cy="165.60" r="3.33"/>
        <circle cx="26.50" cy="165.73" r="3.33"/>
        <circle cx="34.90" cy="165.40" r="3.33"/>
        <circle cx="43.26" cy="165.53" r="3.33"/>
        <circle cx="51.66" cy="165.40" r="3.33"/>
        <circle cx="60.03" cy="165.55" r="3.33"/>
        <circle cx="68.45" cy="165.42" r="3.33"/>
        <circle cx="76.83" cy="165.59" r="3.33"/>
        <circle cx="10.92" cy="155.60" r="3.33"/>
        <circle cx="85.23" cy="165.79" r="3.33"/>
        <circle cx="19.37" cy="155.43" r="3.33"/>
        <circle cx="27.76" cy="155.68" r="3.33"/>
        <circle cx="93.75" cy="165.24" r="3.33"/>
        <circle cx="36.32" cy="155.03" r="3.33"/>
        <circle cx="44.74" cy="155.30" r="3.33"/>
        <circle cx="53.26" cy="155.07" r="3.33"/>
        <circle cx="12.67" cy="145.59" r="3.33"/>
        <circle cx="61.70" cy="155.38" r="3.33"/>
        <circle cx="21.24" cy="145.36" r="3.33"/>
        <circle cx="70.28" cy="155.12" r="3.33"/>
        <circle cx="29.69" cy="145.74" r="3.33"/>
        <circle cx="78.76" cy="155.49" r="3.33"/>
        <circle cx="38.48" cy="144.80" r="3.33"/>
        <circle cx="87.25" cy="155.90" r="3.33"/>
        <circle cx="46.97" cy="145.22" r="3.33"/>
        <circle cx="15.01" cy="135.70" r="3.33"/>
        <circle cx="55.69" cy="144.90" r="3.33"/>
        <circle cx="23.74" cy="135.42" r="3.33"/>
        <circle cx="32.26" cy="135.95" r="3.33"/>
        <circle cx="64.23" cy="145.38" r="3.33"/>
        <circle cx="96.19" cy="154.87" r="3.33"/>
        <circle cx="41.36" cy="134.75" r="3.33"/>
        <circle cx="73.07" cy="145.05" r="3.33"/>
        <circle cx="17.93" cy="125.97" r="3.33"/>
        <circle cx="49.96" cy="135.33" r="3.33"/>
        <circle cx="81.67" cy="145.63" r="3.33"/>
        <circle cx="26.86" cy="125.66" r="3.33"/>
        <circle cx="35.47" cy="126.34" r="3.33"/>
        <circle cx="58.94" cy="134.96" r="3.33"/>
        <circle cx="90.29" cy="146.29" r="3.33"/>
        <circle cx="67.60" cy="135.64" r="3.33"/>
        <circle cx="21.43" cy="116.44" r="3.33"/>
        <circle cx="44.96" cy="124.93" r="3.33"/>
        <circle cx="30.59" cy="116.11" r="3.33"/>
        <circle cx="53.68" cy="125.69" r="3.33"/>
        <circle cx="76.77" cy="135.27" r="3.33"/>
        <circle cx="99.86" cy="144.87" r="3.33"/>
        <circle cx="39.31" cy="116.97" r="3.33"/>
        <circle cx="85.54" cy="136.10" r="3.33"/>
        <circle cx="62.98" cy="125.32" r="3.33"/>
        <circle cx="25.49" cy="107.12" r="3.33"/>
        <circle cx="49.26" cy="115.39" r="3.33"/>
        <circle cx="71.79" cy="126.22" r="3.33"/>
        <circle cx="94.33" cy="137.04" r="3.33"/>
        <circle cx="34.91" cy="106.82" r="3.33"/>
        <circle cx="58.11" cy="116.36" r="3.33"/>
        <circle cx="43.75" cy="107.87" r="3.33"/>
        <circle cx="30.10" cy="98.07" r="3.33"/>
        <circle cx="81.37" cy="125.89" r="3.33"/>
        <circle cx="67.79" cy="116.03" r="3.33"/>
        <circle cx="39.81" cy="97.83" r="3.33"/>
        <circle cx="54.23" cy="106.19" r="3.33"/>
        <circle cx="90.33" cy="127.00" r="3.33"/>
        <circle cx="104.73" cy="135.39" r="3.33"/>
        <circle cx="76.77" cy="117.19" r="3.33"/>
        <circle cx="48.78" cy="99.08" r="3.33"/>
        <circle cx="63.24" cy="107.39" r="3.33"/>
        <circle cx="35.23" cy="89.30" r="3.33"/>
        <circle cx="99.33" cy="128.27" r="3.33"/>
        <circle cx="45.27" cy="89.15" r="3.33"/>
        <circle cx="86.82" cy="116.96" r="3.33"/>
        <circle cx="73.33" cy="107.16" r="3.33"/>
        <circle cx="59.84" cy="97.36" r="3.33"/>
        <circle cx="54.37" cy="90.64" r="3.33"/>
        <circle cx="40.88" cy="80.86" r="3.33"/>
        <circle cx="69.02" cy="98.83" r="3.33"/>
        <circle cx="82.50" cy="108.62" r="3.33"/>
        <circle cx="95.99" cy="118.41" r="3.33"/>
        <circle cx="51.26" cy="80.84" r="3.33"/>
        <circle cx="110.71" cy="126.57" r="3.33"/>
        <circle cx="66.07" cy="88.97" r="3.33"/>
        <circle cx="105.21" cy="120.08" r="3.33"/>
        <circle cx="47.02" cy="72.76" r="3.33"/>
        <circle cx="79.57" cy="98.77" r="3.33"/>
        <circle cx="60.51" cy="82.59" r="3.33"/>
        <circle cx="93.07" cy="108.59" r="3.33"/>
        <circle cx="75.42" cy="90.73" r="3.33"/>
        <circle cx="88.94" cy="100.57" r="3.33"/>
        <circle cx="57.77" cy="72.93" r="3.33"/>
        <circle cx="102.47" cy="110.43" r="3.33"/>
        <circle cx="53.63" cy="65.05" r="3.33"/>
        <circle cx="72.89" cy="81.03" r="3.33"/>
        <circle cx="67.16" cy="74.95" r="3.33"/>
        <circle cx="86.47" cy="90.92" r="3.33"/>
        <circle cx="117.72" cy="118.54" r="3.33"/>
        <circle cx="100.08" cy="100.83" r="3.33"/>
        <circle cx="111.93" cy="112.55" r="3.33"/>
        <circle cx="82.42" cy="83.13" r="3.33"/>
        <circle cx="64.76" cy="65.43" r="3.33"/>
        <circle cx="60.68" cy="57.74" r="3.33"/>
        <circle cx="96.04" cy="93.10" r="3.33"/>
        <circle cx="74.30" cy="67.77" r="3.33"/>
        <circle cx="80.26" cy="73.61" r="3.33"/>
        <circle cx="109.71" cy="103.13" r="3.33"/>
        <circle cx="93.98" cy="83.64" r="3.33"/>
        <circle cx="72.21" cy="58.40" r="3.33"/>
        <circle cx="89.97" cy="76.07" r="3.33"/>
        <circle cx="68.16" cy="50.86" r="3.33"/>
        <circle cx="107.77" cy="93.75" r="3.33"/>
        <circle cx="81.89" cy="61.08" r="3.33"/>
        <circle cx="119.39" cy="105.76" r="3.33"/>
        <circle cx="103.76" cy="86.26" r="3.33"/>
        <circle cx="88.14" cy="66.74" r="3.33"/>
        <circle cx="125.65" cy="111.43" r="3.33"/>
        <circle cx="80.09" cy="51.85" r="3.33"/>
        <circle cx="76.04" cy="44.44" r="3.33"/>
        <circle cx="102.06" cy="77.00" r="3.33"/>
        <circle cx="117.63" cy="96.57" r="3.33"/>
        <circle cx="98.02" cy="69.61" r="3.33"/>
        <circle cx="89.91" cy="54.89" r="3.33"/>
        <circle cx="96.49" cy="60.44" r="3.33"/>
        <circle cx="116.09" cy="87.42" r="3.33"/>
        <circle cx="88.36" cy="45.80" r="3.33"/>
        <circle cx="112.03" cy="80.10" r="3.33"/>
        <circle cx="84.28" cy="38.50" r="3.33"/>
        <circle cx="127.54" cy="99.80" r="3.33"/>
        <circle cx="110.64" cy="71.03" r="3.33"/>
        <circle cx="106.54" cy="63.77" r="3.33"/>
        <circle cx="98.32" cy="49.25" r="3.33"/>
        <circle cx="134.39" cy="105.33" r="3.33"/>
        <circle cx="126.16" cy="90.83" r="3.33"/>
        <circle cx="105.27" cy="54.77" r="3.33"/>
        <circle cx="97.00" cy="40.30" r="3.33"/>
        <circle cx="92.86" cy="33.06" r="3.33"/>
        <circle cx="120.79" cy="74.67" r="3.33"/>
        <circle cx="124.96" cy="81.88" r="3.33"/>
        <circle cx="107.08" cy="44.17" r="3.33"/>
        <circle cx="115.48" cy="58.58" r="3.33"/>
        <circle cx="119.68" cy="65.78" r="3.33"/>
        <circle cx="101.75" cy="28.14" r="3.33"/>
        <circle cx="136.26" cy="94.73" r="3.33"/>
        <circle cx="105.97" cy="35.34" r="3.33"/>
        <circle cx="114.44" cy="49.73" r="3.33"/>
        <circle cx="135.22" cy="85.95" r="3.33"/>
        <circle cx="116.15" cy="39.68" r="3.33"/>
        <circle cx="129.99" cy="70.00" r="3.33"/>
        <circle cx="143.80" cy="100.34" r="3.33"/>
        <circle cx="134.30" cy="77.20" r="3.33"/>
        <circle cx="110.91" cy="23.76" r="3.33"/>
        <circle cx="124.78" cy="54.08" r="3.33"/>
        <circle cx="115.24" cy="30.96" r="3.33"/>
        <circle cx="129.12" cy="61.28" r="3.33"/>
        <circle cx="123.95" cy="45.37" r="3.33"/>
        <circle cx="145.46" cy="90.61" r="3.33"/>
        <circle cx="125.50" cy="35.79" r="3.33"/>
        <circle cx="120.32" cy="19.93" r="3.33"/>
        <circle cx="124.76" cy="27.18" r="3.33"/>
        <circle cx="144.71" cy="81.99" r="3.33"/>
        <circle cx="139.54" cy="66.14" r="3.33"/>
        <circle cx="134.38" cy="50.29" r="3.33"/>
        <circle cx="144.04" cy="73.40" r="3.33"/>
        <circle cx="138.89" cy="57.55" r="3.33"/>
        <circle cx="133.74" cy="41.70" r="3.33"/>
        <circle cx="153.76" cy="96.53" r="3.33"/>
        <circle cx="129.94" cy="16.67" r="3.33"/>
        <circle cx="135.09" cy="32.52" r="3.33"/>
        <circle cx="134.50" cy="24.00" r="3.33"/>
        <circle cx="155.06" cy="87.47" r="3.33"/>
        <circle cx="144.25" cy="47.23" r="3.33"/>
        <circle cx="149.40" cy="63.11" r="3.33"/>
        <circle cx="143.77" cy="38.74" r="3.33"/>
        <circle cx="154.54" cy="78.99" r="3.33"/>
        <circle cx="148.93" cy="54.63" r="3.33"/>
        <circle cx="139.74" cy="13.98" r="3.33"/>
        <circle cx="154.09" cy="70.52" r="3.33"/>
        <circle cx="144.87" cy="29.89" r="3.33"/>
        <circle cx="144.42" cy="21.44" r="3.33"/>
        <circle cx="154.32" cy="44.92" r="3.33"/>
        <circle cx="164.10" cy="93.96" r="3.33"/>
        <circle cx="153.99" cy="36.51" r="3.33"/>
        <circle cx="149.68" cy="11.88" r="3.33"/>
        <circle cx="159.47" cy="60.92" r="3.33"/>
        <circle cx="154.79" cy="27.91" r="3.33"/>
        <circle cx="159.17" cy="52.52" r="3.33"/>
        <circle cx="164.92" cy="85.36" r="3.33"/>
        <circle cx="154.48" cy="19.52" r="3.33"/>
        <circle cx="164.63" cy="76.97" r="3.33"/>
        <circle cx="164.36" cy="68.59" r="3.33"/>
        <circle cx="159.73" cy="10.37" r="3.33"/>
        <circle cx="164.53" cy="43.37" r="3.33"/>
        <circle cx="164.34" cy="35.01" r="3.33"/>
        <circle cx="164.83" cy="26.58" r="3.33"/>
        <circle cx="164.65" cy="18.23" r="3.33"/>
        <circle cx="169.70" cy="59.61" r="3.33"/>
        <circle cx="169.55" cy="51.26" r="3.33"/>
        <circle cx="174.67" cy="92.66" r="3.33"/>
        <circle cx="169.85" cy="9.47" r="3.33"/>
        <circle cx="174.96" cy="84.30" r="3.33"/>
        <circle cx="174.86" cy="75.96" r="3.33"/>
        <circle cx="174.77" cy="67.62" r="3.33"/>
        <circle cx="174.83" cy="42.60" r="3.33"/>
    </g>
    <g style="fill:#ffffff"
       id="1-Vacant">
        <title>Vacant</title>
        <circle cx="174.77" cy="34.26" r="3.33"/>
        <circle cx="174.94" cy="25.92" r="3.33"/>
        <circle cx="174.88" cy="17.58" r="3.33"/>
    </g>
    <g style="fill:#e81b23"
       id="2-Republican-Party">
        <title>Republican Party</title>
        <circle cx="180.00" cy="50.83" r="3.33"/>
        <circle cx="180.00" cy="59.17" r="3.33"/>
        <circle cx="180.00" cy="9.17" r="3.33"/>
        <circle cx="185.12" cy="17.58" r="3.33"/>
        <circle cx="185.06" cy="25.92" r="3.33"/>
        <circle cx="185.23" cy="34.26" r="3.33"/>
        <circle cx="185.17" cy="42.60" r="3.33"/>
        <circle cx="185.23" cy="67.62" r="3.33"/>
        <circle cx="185.14" cy="75.96" r="3.33"/>
        <circle cx="185.04" cy="84.30" r="3.33"/>
        <circle cx="190.15" cy="9.47" r="3.33"/>
        <circle cx="185.33" cy="92.66" r="3.33"/>
        <circle cx="190.45" cy="51.26" r="3.33"/>
        <circle cx="190.30" cy="59.61" r="3.33"/>
        <circle cx="195.35" cy="18.23" r="3.33"/>
        <circle cx="195.17" cy="26.58" r="3.33"/>
        <circle cx="195.66" cy="35.01" r="3.33"/>
        <circle cx="195.47" cy="43.37" r="3.33"/>
        <circle cx="200.27" cy="10.37" r="3.33"/>
        <circle cx="195.64" cy="68.59" r="3.33"/>
        <circle cx="195.37" cy="76.97" r="3.33"/>
        <circle cx="205.52" cy="19.52" r="3.33"/>
        <circle cx="195.08" cy="85.36" r="3.33"/>
        <circle cx="200.83" cy="52.52" r="3.33"/>
        <circle cx="205.21" cy="27.91" r="3.33"/>
        <circle cx="200.53" cy="60.92" r="3.33"/>
        <circle cx="210.32" cy="11.88" r="3.33"/>
        <circle cx="206.01" cy="36.51" r="3.33"/>
        <circle cx="195.90" cy="93.96" r="3.33"/>
        <circle cx="205.68" cy="44.92" r="3.33"/>
        <circle cx="215.58" cy="21.44" r="3.33"/>
        <circle cx="215.13" cy="29.89" r="3.33"/>
        <circle cx="205.91" cy="70.52" r="3.33"/>
        <circle cx="220.26" cy="13.98" r="3.33"/>
        <circle cx="211.07" cy="54.63" r="3.33"/>
        <circle cx="205.46" cy="78.99" r="3.33"/>
        <circle cx="216.23" cy="38.74" r="3.33"/>
        <circle cx="210.60" cy="63.11" r="3.33"/>
        <circle cx="215.75" cy="47.23" r="3.33"/>
        <circle cx="204.94" cy="87.47" r="3.33"/>
        <circle cx="225.50" cy="24.00" r="3.33"/>
        <circle cx="224.91" cy="32.52" r="3.33"/>
        <circle cx="230.06" cy="16.67" r="3.33"/>
        <circle cx="206.24" cy="96.53" r="3.33"/>
        <circle cx="226.26" cy="41.70" r="3.33"/>
        <circle cx="221.11" cy="57.55" r="3.33"/>
        <circle cx="215.96" cy="73.40" r="3.33"/>
        <circle cx="225.62" cy="50.29" r="3.33"/>
        <circle cx="220.46" cy="66.14" r="3.33"/>
        <circle cx="215.29" cy="81.99" r="3.33"/>
        <circle cx="235.24" cy="27.18" r="3.33"/>
        <circle cx="239.68" cy="19.93" r="3.33"/>
        <circle cx="234.50" cy="35.79" r="3.33"/>
        <circle cx="214.54" cy="90.61" r="3.33"/>
        <circle cx="236.05" cy="45.37" r="3.33"/>
        <circle cx="230.88" cy="61.28" r="3.33"/>
        <circle cx="244.76" cy="30.96" r="3.33"/>
        <circle cx="235.22" cy="54.08" r="3.33"/>
        <circle cx="249.09" cy="23.76" r="3.33"/>
        <circle cx="225.70" cy="77.20" r="3.33"/>
        <circle cx="216.20" cy="100.34" r="3.33"/>
        <circle cx="230.01" cy="70.00" r="3.33"/>
        <circle cx="243.85" cy="39.68" r="3.33"/>
        <circle cx="224.78" cy="85.95" r="3.33"/>
        <circle cx="245.56" cy="49.73" r="3.33"/>
        <circle cx="254.03" cy="35.34" r="3.33"/>
        <circle cx="223.74" cy="94.73" r="3.33"/>
        <circle cx="258.25" cy="28.14" r="3.33"/>
        <circle cx="240.32" cy="65.78" r="3.33"/>
        <circle cx="244.52" cy="58.58" r="3.33"/>
        <circle cx="252.92" cy="44.17" r="3.33"/>
        <circle cx="235.04" cy="81.88" r="3.33"/>
        <circle cx="239.21" cy="74.67" r="3.33"/>
        <circle cx="267.14" cy="33.06" r="3.33"/>
        <circle cx="263.00" cy="40.30" r="3.33"/>
        <circle cx="254.73" cy="54.77" r="3.33"/>
        <circle cx="233.84" cy="90.83" r="3.33"/>
        <circle cx="225.61" cy="105.33" r="3.33"/>
        <circle cx="261.68" cy="49.25" r="3.33"/>
        <circle cx="253.46" cy="63.77" r="3.33"/>
        <circle cx="249.36" cy="71.03" r="3.33"/>
        <circle cx="232.46" cy="99.80" r="3.33"/>
        <circle cx="275.72" cy="38.50" r="3.33"/>
        <circle cx="247.97" cy="80.10" r="3.33"/>
        <circle cx="271.64" cy="45.80" r="3.33"/>
        <circle cx="243.91" cy="87.42" r="3.33"/>
        <circle cx="263.51" cy="60.44" r="3.33"/>
        <circle cx="270.09" cy="54.89" r="3.33"/>
        <circle cx="261.98" cy="69.61" r="3.33"/>
        <circle cx="242.37" cy="96.57" r="3.33"/>
        <circle cx="257.94" cy="77.00" r="3.33"/>
        <circle cx="283.96" cy="44.44" r="3.33"/>
        <circle cx="279.91" cy="51.85" r="3.33"/>
        <circle cx="234.35" cy="111.43" r="3.33"/>
        <circle cx="271.86" cy="66.74" r="3.33"/>
        <circle cx="256.24" cy="86.26" r="3.33"/>
        <circle cx="240.61" cy="105.76" r="3.33"/>
        <circle cx="278.11" cy="61.08" r="3.33"/>
        <circle cx="252.23" cy="93.75" r="3.33"/>
        <circle cx="291.84" cy="50.86" r="3.33"/>
        <circle cx="270.03" cy="76.07" r="3.33"/>
        <circle cx="287.79" cy="58.40" r="3.33"/>
        <circle cx="266.02" cy="83.64" r="3.33"/>
        <circle cx="250.29" cy="103.13" r="3.33"/>
        <circle cx="279.74" cy="73.61" r="3.33"/>
        <circle cx="285.70" cy="67.77" r="3.33"/>
        <circle cx="263.96" cy="93.10" r="3.33"/>
        <circle cx="299.32" cy="57.74" r="3.33"/>
        <circle cx="295.24" cy="65.43" r="3.33"/>
        <circle cx="277.58" cy="83.13" r="3.33"/>
        <circle cx="248.07" cy="112.55" r="3.33"/>
        <circle cx="259.92" cy="100.83" r="3.33"/>
        <circle cx="242.28" cy="118.54" r="3.33"/>
        <circle cx="273.53" cy="90.92" r="3.33"/>
        <circle cx="292.84" cy="74.95" r="3.33"/>
        <circle cx="287.11" cy="81.03" r="3.33"/>
        <circle cx="306.37" cy="65.05" r="3.33"/>
        <circle cx="257.53" cy="110.43" r="3.33"/>
        <circle cx="302.23" cy="72.93" r="3.33"/>
        <circle cx="271.06" cy="100.57" r="3.33"/>
        <circle cx="284.58" cy="90.73" r="3.33"/>
        <circle cx="266.93" cy="108.59" r="3.33"/>
        <circle cx="299.49" cy="82.59" r="3.33"/>
        <circle cx="280.43" cy="98.77" r="3.33"/>
        <circle cx="312.98" cy="72.76" r="3.33"/>
        <circle cx="254.79" cy="120.08" r="3.33"/>
        <circle cx="293.93" cy="88.97" r="3.33"/>
        <circle cx="249.29" cy="126.57" r="3.33"/>
        <circle cx="308.74" cy="80.84" r="3.33"/>
        <circle cx="264.01" cy="118.41" r="3.33"/>
        <circle cx="277.50" cy="108.62" r="3.33"/>
        <circle cx="290.98" cy="98.83" r="3.33"/>
        <circle cx="319.12" cy="80.86" r="3.33"/>
        <circle cx="305.63" cy="90.64" r="3.33"/>
        <circle cx="300.16" cy="97.36" r="3.33"/>
        <circle cx="286.67" cy="107.16" r="3.33"/>
        <circle cx="273.18" cy="116.96" r="3.33"/>
        <circle cx="314.73" cy="89.15" r="3.33"/>
        <circle cx="260.67" cy="128.27" r="3.33"/>
        <circle cx="324.77" cy="89.30" r="3.33"/>
        <circle cx="296.76" cy="107.39" r="3.33"/>
        <circle cx="311.22" cy="99.08" r="3.33"/>
        <circle cx="283.23" cy="117.19" r="3.33"/>
        <circle cx="255.27" cy="135.39" r="3.33"/>
        <circle cx="269.67" cy="127.00" r="3.33"/>
        <circle cx="305.77" cy="106.19" r="3.33"/>
        <circle cx="320.19" cy="97.83" r="3.33"/>
        <circle cx="292.21" cy="116.03" r="3.33"/>
        <circle cx="278.63" cy="125.89" r="3.33"/>
        <circle cx="329.90" cy="98.07" r="3.33"/>
        <circle cx="316.25" cy="107.87" r="3.33"/>
        <circle cx="301.89" cy="116.36" r="3.33"/>
        <circle cx="325.09" cy="106.82" r="3.33"/>
        <circle cx="265.67" cy="137.04" r="3.33"/>
        <circle cx="288.21" cy="126.22" r="3.33"/>
        <circle cx="310.74" cy="115.39" r="3.33"/>
        <circle cx="334.51" cy="107.12" r="3.33"/>
        <circle cx="297.02" cy="125.32" r="3.33"/>
        <circle cx="274.46" cy="136.10" r="3.33"/>
        <circle cx="320.69" cy="116.97" r="3.33"/>
        <circle cx="260.14" cy="144.87" r="3.33"/>
        <circle cx="283.23" cy="135.27" r="3.33"/>
        <circle cx="306.32" cy="125.69" r="3.33"/>
        <circle cx="329.41" cy="116.11" r="3.33"/>
        <circle cx="315.04" cy="124.93" r="3.33"/>
        <circle cx="338.57" cy="116.44" r="3.33"/>
        <circle cx="292.40" cy="135.64" r="3.33"/>
        <circle cx="269.71" cy="146.29" r="3.33"/>
        <circle cx="301.06" cy="134.96" r="3.33"/>
        <circle cx="324.53" cy="126.34" r="3.33"/>
        <circle cx="333.14" cy="125.66" r="3.33"/>
        <circle cx="278.33" cy="145.63" r="3.33"/>
        <circle cx="310.04" cy="135.33" r="3.33"/>
        <circle cx="342.07" cy="125.97" r="3.33"/>
        <circle cx="286.93" cy="145.05" r="3.33"/>
        <circle cx="318.64" cy="134.75" r="3.33"/>
        <circle cx="263.81" cy="154.87" r="3.33"/>
        <circle cx="295.77" cy="145.38" r="3.33"/>
        <circle cx="327.74" cy="135.95" r="3.33"/>
        <circle cx="336.26" cy="135.42" r="3.33"/>
        <circle cx="304.31" cy="144.90" r="3.33"/>
        <circle cx="344.99" cy="135.70" r="3.33"/>
        <circle cx="313.03" cy="145.22" r="3.33"/>
        <circle cx="272.75" cy="155.90" r="3.33"/>
        <circle cx="321.52" cy="144.80" r="3.33"/>
        <circle cx="281.24" cy="155.49" r="3.33"/>
        <circle cx="330.31" cy="145.74" r="3.33"/>
        <circle cx="289.72" cy="155.12" r="3.33"/>
        <circle cx="338.76" cy="145.36" r="3.33"/>
        <circle cx="298.30" cy="155.38" r="3.33"/>
        <circle cx="347.33" cy="145.59" r="3.33"/>
        <circle cx="306.74" cy="155.07" r="3.33"/>
        <circle cx="315.26" cy="155.30" r="3.33"/>
        <circle cx="323.68" cy="155.03" r="3.33"/>
        <circle cx="266.25" cy="165.24" r="3.33"/>
        <circle cx="332.24" cy="155.68" r="3.33"/>
        <circle cx="340.63" cy="155.43" r="3.33"/>
        <circle cx="274.77" cy="165.79" r="3.33"/>
        <circle cx="349.08" cy="155.60" r="3.33"/>
        <circle cx="283.17" cy="165.59" r="3.33"/>
        <circle cx="291.55" cy="165.42" r="3.33"/>
        <circle cx="299.97" cy="165.55" r="3.33"/>
        <circle cx="308.34" cy="165.40" r="3.33"/>
        <circle cx="316.74" cy="165.53" r="3.33"/>
        <circle cx="325.10" cy="165.40" r="3.33"/>
        <circle cx="333.50" cy="165.73" r="3.33"/>
        <circle cx="341.86" cy="165.60" r="3.33"/>
        <circle cx="350.23" cy="165.69" r="3.33"/>
        <circle cx="267.40" cy="175.83" r="3.33"/>
        <circle cx="275.74" cy="175.83" r="3.33"/>
        <circle cx="284.08" cy="175.83" r="3.33"/>
        <circle cx="292.42" cy="175.83" r="3.33"/>
        <circle cx="300.76" cy="175.83" r="3.33"/>
        <circle cx="309.10" cy="175.83" r="3.33"/>
        <circle cx="317.44" cy="175.83" r="3.33"/>
        <circle cx="325.77" cy="175.83" r="3.33"/>
        <circle cx="334.11" cy="175.83" r="3.33"/>
        <circle cx="342.45" cy="175.83" r="3.33"/>
        <circle cx="350.78" cy="175.83" r="3.33"/>
    </g>
</svg>

